<svg xmlns="http://www.w3.org/2000/svg" viewBox="-532 72 226.664 125.02">
  <defs>
    <style>
      .cls-1 {
        fill: #fff;
      }
    </style>
  </defs>
  <g id="logo_draft" transform="translate(-624.91 -135.494)">
    <g id="XMLID_1_" transform="translate(92.91 207.494)">
      <path id="XMLID_118_" class="cls-1" d="M144.907,365.262a3.658,3.658,0,0,0-1.2-1.9c-.351-.263-1.724-.409-1.782-.76-.029-.292.088-.38.058-.613a.473.473,0,0,0-.526-.438c-.175.029-.351.029-.526.058-.467.058-1.11-.38-1.84-.467A8.068,8.068,0,0,0,137.37,361a1.773,1.773,0,0,0-.76.234,2.945,2.945,0,0,0-.964,1.753c0,.146.058.2.2.2.292-.029.5-1.052.847-1.081.234-.029.292.5.321.73a8.048,8.048,0,0,1-.175,2.045,14.471,14.471,0,0,1-1.694,2.571,27.794,27.794,0,0,1-2.22,2.688c-1.578,1.87-3.126,3.8-4.762,5.638-1.256,1.431-2.717,2.658-3.944,4.119-1.11,1.344-2.512,2.512-3.769,3.769a36.124,36.124,0,0,1-4,3.915,9.2,9.2,0,0,1-1.87,1.4c-.058,0-.263-.088-.321-.613-.058-.584.613-1.607.73-1.9.7-1.928,1.724-3.739,2.6-5.609.906-1.9,1.928-3.681,2.951-5.492.818-1.431,1.607-2.863,2.366-4.324a35.407,35.407,0,0,1,2.863-4.587c.643-.906,2.1-2.571,2.22-3.681v-.38a8.33,8.33,0,0,0-.438-1.636,3.534,3.534,0,0,0-1.49-1.636c-.613-.5-.847-1.081-1.84-.964a5.29,5.29,0,0,0-2.045.7c-.818.526-1.2,1.782-1.636,2.6s-.906,1.636-1.344,2.483c-.818,1.578-1.519,3.3-2.22,4.908-.38.906-1.344,1.665-1.607,2.629a1.188,1.188,0,0,0,0,.555,3.665,3.665,0,0,1-.643,1.782,6.18,6.18,0,0,0-.526,1.081c-.029.234.175.263.146.409a6.755,6.755,0,0,1-.643,1.811c-.789,1.694-1.636,3.418-2.542,5.054-.263.5-1.256,4.119-1.928,4.207-.088,0-.117-.058-.117-.175a20.914,20.914,0,0,1,1.49-4.82c.73-1.987,1.548-3.915,1.782-4.47-.263-.117-1.11,1.548-1.811,2.98-.467.993-.847,1.9-.906,2.016a15.713,15.713,0,0,0-1.431,6.631A7.519,7.519,0,0,0,109.3,391a11.661,11.661,0,0,0,1.373,3.009,5.81,5.81,0,0,0,4.411,1.636,3.2,3.2,0,0,0,.76-.175c1.2-.467,2.542-2.308,3.506-3.184.847-.789,1.636-1.636,2.454-2.425,1.724-1.636,3.447-3.243,5.025-5.025a21.22,21.22,0,0,1,1.431-1.782c.7-.672,1.461-1.315,2.162-1.987.526-.5,3.8-4.879,4.324-4.937.088,0,.117.088.117.234.146,1.344-2.366,8.238-2.542,8.91a5.275,5.275,0,0,1-2.279,3.33,41.7,41.7,0,0,1-3.944,2.4,49.5,49.5,0,0,0-6.369,4.674c-2.133,1.782-4.207,3.681-6.31,5.463a47.967,47.967,0,0,0-6.076,6.339,61.915,61.915,0,0,0-5.054,6.018c-1.578,2.454-3.564,4.5-5.142,6.924a26.29,26.29,0,0,0-2.249,3.827c-.234.555-.672,1.227-.847,1.782a8.8,8.8,0,0,0-.029,1.519c-.234,1.753-1.285,3.3-1.081,5.229a7.21,7.21,0,0,0,.847,2.717c1.285,2.366,5.083,3.827,6.6,3.652h0a20.117,20.117,0,0,0,3.418-.789,13.788,13.788,0,0,0,3.184-1.49,33.369,33.369,0,0,0,5.375-4.557,56.831,56.831,0,0,0,4.82-5.784c1.431-1.928,2.775-3.885,4.178-5.813,1.169-1.607,1.987-3.36,3.009-5.054.964-1.578,1.87-3.213,2.834-4.791,1.052-1.724,2.1-3.476,3.067-5.258,1.081-1.957,2.133-3.944,3.1-5.96.876-1.84,1.636-3.739,2.542-5.58a8.091,8.091,0,0,1,2.337-3.243,2.507,2.507,0,0,1,.321-.964c.263-1.139.7-2.249.876-3.418a3.909,3.909,0,0,1,.292-1.431c.058-.643.935-2.775,1.2-3.856.555-2.249,1.169-4.5,1.607-6.807a33.6,33.6,0,0,0,.789-5.375,1.1,1.1,0,0,0-.029-.292c-.029-.292-.088-.643-.117-.964a1.776,1.776,0,0,1,.058-.906c.2-.38.613-.467.993-.584C144.586,366.051,144.995,365.9,144.907,365.262Zm-17.645,28.892h.117c-.117.526-1.2,1.022-1.461,1.052A2.9,2.9,0,0,1,127.262,394.154Zm-2.249,1.49c.088,0,.146,0,.146.088.029.263-1.139,1.11-1.431,1.139-.058,0-.088-.029-.088-.058C123.611,396.55,124.6,395.7,125.013,395.644Zm-2.892,2.22c.088,0,.146.029.175.146.029.146-.526.7-1.139,1.2a4.713,4.713,0,0,1-1.4.906h-.146A7.109,7.109,0,0,1,122.121,397.864Zm-9.553,8.5c.409-.555.613-1.2,1.081-1.724a12.076,12.076,0,0,1,1.344-1.139c.438-.351,1.373-.935,2.016-1.461.906-.73,1.548-1.373,1.9-1.4.088,0,.146.029.146.088.029.234-.76.847-.789.876-.643.526-1.227,1.11-1.84,1.665-1.139,1.052-2.191,2.133-3.36,3.155-.5.438-4.82,5.521-5.551,5.609h0a.135.135,0,0,1-.146-.088C107.309,411.419,112.188,406.862,112.568,406.366Zm-9.378,27.811a4.766,4.766,0,0,1-1.49.613c-.175.029-.321-.029-.351-.2-.058-.584,1.782-1.694,2.191-2.1a7.407,7.407,0,0,0,1.052-1.694,21.109,21.109,0,0,1,2.1-2.191c.321-.38,2.512-2.98,4.265-5.346,1.256-1.665,2.425-3.506,2.366-3.915,0-.088-.029-.117-.088-.117a18.825,18.825,0,0,0-2.746,3.126c-1.373,1.753-2.8,3.681-3.126,4-1.285,1.315-2.629,2.6-3.944,3.856-.789.76-1.724,2.22-2.892,2.366-.7.058-2.951.2-3.038-.672a7.592,7.592,0,0,1,1.052-2.688c1.139-2.22,2.542-4.324,3.885-6.456a73.325,73.325,0,0,1,4.44-5.96c.76-.993,1.548-1.957,2.337-2.921.438-.555,1.811-1.811,1.84-2.454-1.022.117-1.9,2.133-2.688,2.775-.321.263-.526.38-.643.38a.155.155,0,0,1-.175-.175,3.11,3.11,0,0,1,.526-1.4,18.636,18.636,0,0,1,2.658-3.272c1.2-1.227,2.483-2.366,3.593-3.564,1.344-1.49,3.038-2.746,4.557-4.119a48.414,48.414,0,0,1,6.135-5.025c.292-.175,2.22-1.957,2.98-2.016.146-.029.234,0,.263.117.029.321-.76.672-.847.847-.175.292.029.526-.2.847-.76.993-2.279,1.315-3.067,2.249a2.209,2.209,0,0,0-.351.5c0,.088.058.088.146.088.351-.029,1.285-.964,1.49-1.081a3.445,3.445,0,0,1,1.315-.584c.234-.029.38.058.409.292a1.719,1.719,0,0,1-.058.5,20.566,20.566,0,0,1-1.49,3.009c-.555,1.169-1.081,2.425-1.753,3.535-.467.73-1.548,1.724-1.461,2.658.029.234.292.2.321.467.029.409-.73,1.431-.964,1.928a18.968,18.968,0,0,1-2.133,3.33,3.564,3.564,0,0,0-.613,1.2,2.016,2.016,0,0,1-.789,1.11c-.117.088-1.84.935-1.811,1.49,0,.088.088.234.175.234.234-.029.38-.818.76-.847.058,0,.088.088.088.146.029.38-1.285,2.366-2.629,4.411-1.315,1.987-2.688,3.915-2.892,4.294a40.829,40.829,0,0,1-4.09,4.645A27.04,27.04,0,0,1,103.19,434.177Zm9.056-6.924c-.584.7-1.169,1.519-1.4,1.519-.117,0-.2-.029-.2-.175-.058-.584.7-1.461,1.344-1.987.175-.146.789-1.022,1.256-1.081.117,0,.146.029.146.117A5.277,5.277,0,0,1,112.247,427.253Zm13.935-21.735c-.5.906-.906,1.811-1.461,2.658-1.4,2.191-2.571,4.528-3.944,6.719-.584.935-1.081,1.957-1.753,2.834a9.477,9.477,0,0,0-1.169,1.665c-.146.321-.058.5-.146.73a15.914,15.914,0,0,1-1.2,1.344c-.467.672-.993,1.315-1.431,2.016-.058.088-.993,1.548-1.344,1.607h0c-.146,0-.234-.029-.263-.292-.088-.73,1.578-2.133,2.045-2.8.7-1.022,1.285-2.1,1.957-3.155,1.139-1.84,2.425-3.535,3.564-5.375,1.227-1.957,2.337-3.915,3.389-5.96.526-1.022,1.285-1.957,1.84-2.98.088-.146,1.169-2.22,1.461-2.249.029,0,.058.029.088.117A28.3,28.3,0,0,1,126.181,405.518Zm1.9-4.236h0c-.058,0-.088,0-.088-.117a5.209,5.209,0,0,1,1.11-2.279c.029,0,.058.088.088.146C129.22,399.471,128.431,401.253,128.08,401.282Zm6.778-28.1c-1.169,1.285-2.308,2.6-3.389,3.944-.526.643-1.344,1.169-1.957,1.811-.555.584-1.169,1.548-1.987,1.636a.336.336,0,0,1-.38-.263c-.058-.438.935-1.285,1.169-1.578.847-.935,1.753-1.811,2.571-2.746.876-.993,1.665-2.045,2.425-3.1.146-.2,1.4-1.548,1.4-1.928,0-.058-.058-.088-.146-.088-.584.058-1.519,2.22-2.162,2.279-.117,0-.146-.029-.175-.117-.058-.438,1.782-2.045,1.9-2.191.234-.351,1.2-2.1,1.724-2.162.438-.058.613.351.643.73C136.64,370.638,135.267,372.741,134.858,373.179Z" transform="translate(-92.91 -314.137)"/>
      <path id="XMLID_28_" class="cls-1" d="M289.027,380.918c-.847.088-1.607-.5-2.366-.76-.73-.263-1.519-.409-2.249-.672a7.378,7.378,0,0,1-3.447-3.243,11.664,11.664,0,0,1-1.607-4.616,2.174,2.174,0,0,1,.058-.906c.263-.526.613-.438.584-.73-.029-.234-.409-.5-.438-.73a.72.72,0,0,1,.234-.643.828.828,0,0,1,.38-.117c.263-.029.584,0,.906-.029a1.018,1.018,0,0,0,.5-.175c.526-.38.73-1.4.993-1.987.292-.672.584-1.373.935-2.016.146-.292.73-.876.7-1.11s-.263-.467-.438-.438c-.409.058-.672.876-.964.906-.175.029-.234-.029-.234-.146-.029-.175.146-.467.234-.672a15.622,15.622,0,0,1,.993-2.133c.818-1.578,1.782-3.067,2.746-4.557a5.507,5.507,0,0,0,.935-1.957c.175-.672.292-.584.789-.993.175-.146.467-.292.438-.555,0-.117-.263-.146-.292-.292-.029-.234.175-.409.321-.584.438-.73.993-1.431,1.49-2.133a52.719,52.719,0,0,1,3.418-4.645,8,8,0,0,1,4.47-2.074c.906-.088,1.724.351,2.746.234a9.369,9.369,0,0,0,1.4-.409,6.62,6.62,0,0,1,.73-.175,2.479,2.479,0,0,1,1.022.088,2.825,2.825,0,0,0,.847.117,5.533,5.533,0,0,1,2.4.088,5.9,5.9,0,0,1,2.162,1.811,5.966,5.966,0,0,1,1.169,2.892,2.91,2.91,0,0,1-.029.876c-.146.613-.467.409-.643,1.139-.175.847-.321,1.724-.5,2.571a10.607,10.607,0,0,1-.73,2.308c-.321.672-.906,1.169-1.081,1.9-.088.38-.029.76-.117,1.139-.058.321-.467.76-.438,1.052,0,.146.146.2.321.2a1.073,1.073,0,0,0,.584-.321,7.437,7.437,0,0,0,1.315-2.22c.146-.351,1.256-4.616,1.578-4.645.088,0,.117.058.117.2a17.17,17.17,0,0,1-.584,2.921,11.7,11.7,0,0,0-.847,2.951c.029.2.175.263.409.263a12.334,12.334,0,0,0,2.98-1.519c1.081-.584,2.191-1.169,3.272-1.782a2.239,2.239,0,0,0,.906-.818,1.4,1.4,0,0,1,.73-.613c.2-.029.321.146.613.117a4.969,4.969,0,0,0,1.49-.876c.906-.555,1.665-1.227,2.6-1.724a7.729,7.729,0,0,1,2.4-1.227c.088,0,.175.029.175.088,0,.146-.292.5-1.315,1.052a20.47,20.47,0,0,0-1.811,1.315c-.555.351-1.139.7-1.665,1.11-.467.351-.76.643-.73.789,0,.058.058.117.2.088a5.67,5.67,0,0,0,1.548-.847c.672-.409,1.344-.76,2.016-1.139.613-.351,1.227-.73,1.84-1.11a9.129,9.129,0,0,1,1.665-1.022c.058,0,.117,0,.117.029.029.234-.876.7-1.227.935-.672.467-1.373.906-2.1,1.373-1.373.876-2.775,1.724-4.148,2.6a37.244,37.244,0,0,0-3.681,2.337c-.234.2-.351.38-.351.5s.117.146.38.146c.409-.058.847-.467,1.256-.555a7.988,7.988,0,0,1-1.2,1.11c-.409.351-.76.73-.73.935,0,.088.088.117.175.088a19.053,19.053,0,0,0,3.009-1.665,6.641,6.641,0,0,1,1.811-.993c.175,0,.234.058.234.146,0,.263-.467.818-.643,1.022a16.629,16.629,0,0,1-2.658,2.512c-2.162,1.636-4.791,2.425-7.274,3.447-.7.292-1.461.438-2.133.73a2.7,2.7,0,0,0-1.169.876c-.438.613-.847,1.256-1.285,1.9-.175.234-.351.613-.584.906a1.053,1.053,0,0,1-.438.321,1.291,1.291,0,0,1,.175-.73c.467-.876,1.694-1.665,1.607-2.454,0-.146-.058-.175-.146-.175-.351.058-1.081,1.315-1.461,1.928-.2.351-.5.672-.73,1.022a3.339,3.339,0,0,0-.438.847c-.088.234.058.555-.058.76-.088.146-.321.292-.467.467-.321.438-.438.993-.818,1.431a25.032,25.032,0,0,1-2.016,1.928,35.532,35.532,0,0,1-3.36,3.272,17.527,17.527,0,0,1-3.973,2.337c-1.256.526-2.249,1.665-3.506,1.811Zm-.058-5.638a9.533,9.533,0,0,0,2.133-1.2c.584-.467.7-1.169,1.227-1.694.584-.584,1.2-1.139,1.811-1.724.467-.438,1.081-.38,1.431-.876.38-.526.5-1.2.935-1.753.643-.847,1.315-1.694,1.957-2.542.292-.409.73-.818.7-1.139a.869.869,0,0,0-.146-.438,9.841,9.841,0,0,0-1.9-1.285,8.551,8.551,0,0,1-1.811-1.9c-.409-.584-.789-1.2-1.139-1.811-.263-.438-.38-.555-.584-.526a.924.924,0,0,0-.584.467,16.121,16.121,0,0,0-1.4,2.249,5.662,5.662,0,0,1-1.431,1.957c-.292.234-.38.117-.555.438a10.461,10.461,0,0,0-.321,1.022c-.76,1.782-1.724,3.418-2.571,5.112-1.052,2.074-2.074,4.382-1.9,6.018.058.584,1.285.876,1.724.818C287.479,376.419,288.618,375.426,288.969,375.28Zm12.24-14.9c1.285-.146,1.811-2.337,2.279-3.33.555-1.2,1.4-2.6,1.256-3.944-.029-.175-.146-.292-.175-.438-.058-.234.117-.321.292-.409a.745.745,0,0,0,.351-.234.621.621,0,0,0,.058-.467c-.029-.292-.146-.672-.175-.993-.088-.935.38-1.87.292-2.8-.029-.234-.058-.584-.38-.555-.146.029-.2.351-.467.584a16.288,16.288,0,0,0-2.98,3.038,12.48,12.48,0,0,0-2.4,4.119,14.566,14.566,0,0,1-.818,2.133,4.406,4.406,0,0,0-.351,1.957c.088.7,1.782,1.49,3.214,1.344Zm.906,7.537a2.783,2.783,0,0,0,1.081-1.227c.2-.351,1.11-1.139,1.081-1.578-.029-.321-.263-.38-.526-.351a2.017,2.017,0,0,0-.906.438,11.95,11.95,0,0,0-1.315,1.87c-.292.438-2.279,2.746-2.191,3.506q.044.219.175.175C300.07,370.664,301.735,368.181,302.115,367.918Zm-1.782-.964c.409-.029,1.519-1.607,1.49-1.9a.107.107,0,0,0-.117-.117,4.207,4.207,0,0,0-1.461,1.928.077.077,0,0,0,.088.088Zm5.813-8.793a17.05,17.05,0,0,0,.847-2.133c.263-.76.613-1.461.906-2.191a8.3,8.3,0,0,0,.438-1.724c-.029-.175-.088-.263-.146-.263-.321.029-.613,1.052-.7,1.169-.175.2-.38.234-.526.5a3.715,3.715,0,0,0-.175,1.139,11.515,11.515,0,0,1-1.081,2.775,5.726,5.726,0,0,0-.73,1.811c.029.146.058.234.117.234C305.416,359.446,305.854,358.716,306.146,358.161Z" transform="translate(-224.878 -303.092)"/>
      <path id="XMLID_50_" class="cls-1" d="M400.845,351.029a7.664,7.664,0,0,1-.818.029,6.588,6.588,0,0,1-4.937-4.294c-.088-.818,1.256-.847,1.84-1.431a7.771,7.771,0,0,0,1.461-2.951c.175-.672-.2-1.052-.146-1.665a5.063,5.063,0,0,1,.818-1.636c1.081-1.957,1.724-4.061,2.8-5.989a25.974,25.974,0,0,0,1.315-3.243c.2-.467.38-.935.555-1.4A2.368,2.368,0,0,0,404,327.6c-.029-.175-.088-.351-.117-.5s.2-.467.467-.7c.292-.263.438-.146.672-.351.7-.5,1.11-2.162,1.519-2.921a3.657,3.657,0,0,0,.526-1.2,9.873,9.873,0,0,1,0-1.315c.351-1.169,1.285-2.191,1.724-3.36.906-2.249,1.636-4.178,3.681-5.609.935-.672,1.461-1.49,2.8-1.636a3.9,3.9,0,0,1,2.951.818c.643.438.964.818.993,1.227a3.136,3.136,0,0,1-.467,1.49,25.864,25.864,0,0,0-1.256,3.126,6.133,6.133,0,0,1-1.87,2.366,13.167,13.167,0,0,0-2.1,3.1c-1.315,2.279-2.717,4.5-3.973,6.778-1.285,2.279-2.454,4.587-3.856,6.777a3.076,3.076,0,0,0-.467,1.373c0,.117.058.175.146.146.117,0,.292-.146.584-.438.964-.993,1.9-2.016,2.834-3.038L414.4,327.6c1.9-2.074,3.739-4.178,5.667-6.222a14.4,14.4,0,0,1,2.4-2.22,4.151,4.151,0,0,1,1.636-.555c.584-.058,1.285.146,1.315.409a1.221,1.221,0,0,1-.088.5c0,.117.409.175.555.146.2-.029.38-.117.584-.146a.705.705,0,0,1,.467.088c.76.38,1.753,1.022,1.84,1.928s-.76,2.016-1.373,2.688a20.136,20.136,0,0,0-2.191,2.8,27.418,27.418,0,0,0-1.753,3.3c-.526,1.139-.964,2.308-1.373,3.476-.234.672-.467,1.344-.672,2.016a1.469,1.469,0,0,0-.088.643c.029.234.175.351.2.643a4.53,4.53,0,0,1-.2,1.022c-.146.643-.321,1.315-.409,1.957a6.565,6.565,0,0,0-.088,1.578c.058.672.38,1.256,1.256,1.169a6.7,6.7,0,0,0,2.892-1.636,29.236,29.236,0,0,0,4.7-5.667,65.8,65.8,0,0,0,7.391-13.847c.438-1.169.847-2.308,1.2-3.476a19.686,19.686,0,0,0,.818-4.148,19.321,19.321,0,0,0-.117-3.681c-.029-.38-.234-1.139-.76-1.081-.438.058-1.49.5-1.87.526-1.139.088-2.512-.292-2.571-.935-.088-.789,1.052-1.694,1.578-2.016a7.158,7.158,0,0,1,2.775-1.022,4.87,4.87,0,0,1,3.389.935,5.317,5.317,0,0,1,1.87,2.279,10.017,10.017,0,0,1,.73,2.98,27.623,27.623,0,0,1-.76,9.962,51.939,51.939,0,0,1-2.162,6.31,51.452,51.452,0,0,1-7.6,13.146,21.177,21.177,0,0,1-5.4,5.054,8.1,8.1,0,0,1-3.389.876c-.555.088-1.052.175-1.548.234a5.379,5.379,0,0,1-2.133-.175c-1.081-.321-1.49-1.2-2.366-1.753a6.1,6.1,0,0,1-2.249-2.308,8.7,8.7,0,0,1-1.431-3.535,21.93,21.93,0,0,1,.117-3.915,11.4,11.4,0,0,0,.146-1.4c-.029-.146-.058-.263-.175-.234-.117,0-.263.117-.526.38a41.573,41.573,0,0,0-2.629,3.36c-.818,1.022-1.607,2.045-2.425,3.067l-2.366,2.892c-.818.993-1.694,1.928-2.512,2.921-.789.993-1.285,2.162-2.045,3.155a2.258,2.258,0,0,1-1.811.964Zm.526-11.276c.234-.029.906-1.285.964-1.4.117-.234,1.373-2.279,1.315-2.8,0-.117-.088-.175-.234-.146-.321.029-.818.964-1.315,1.957a10.806,10.806,0,0,0-.964,2.133c.058.2.146.263.234.263Zm2.834-5.784c.263-.029.7-.73.672-1.022-.029-.321-.146-.438-.263-.409-.263.029-.643.7-.613,1.169.058.175.117.263.2.263Zm2.658-4.791c0-.117-.058-.2-.175-.175-.38.029-.964,1.285-.964,1.519,0,.117.029.175.117.146C406.22,330.609,406.863,329.616,406.863,329.177ZM416.62,329c0-.146-.117-.234-.467-.175a1.989,1.989,0,0,0-1.315,1.285c0,.146.088.2.321.2C415.656,330.258,416.62,329.382,416.62,329Zm.146,10.4c.292-1.315.351-2.658.526-4.031a3.467,3.467,0,0,0,.058-.818c-.029-.2-.088-.351-.321-.321-.351.029-.584.672-.643.876a17.85,17.85,0,0,0-.321,4.324c.058.5.175.818.38.818C416.533,340.22,416.65,340.016,416.766,339.4Zm21.355-12.124c.5-.76.876-1.548,1.315-2.308a2.688,2.688,0,0,1,.555-.73c.2-.146.906-.058.876-.409-.058-.438-.584-.2-.643-.847s.643-1.753.847-2.337a13.874,13.874,0,0,0,.672-2.892c.058-.351.117-.73.146-1.11a22.3,22.3,0,0,0,.234-5.025c-.058-.584-.234-2.074-.613-2.016-.117,0-.058.847,0,1.49.029.292.058.584.088.7a13.82,13.82,0,0,1-.117,2.8c-.351,1.578-.38,3.155-.876,4.7a31.1,31.1,0,0,1-1.315,3.126c-.409.876-.818,1.724-1.139,2.571-.38.935-.847,1.782-1.227,2.688a3.014,3.014,0,0,0-.234,1.139c.029.175.088.292.292.292C437.566,329.061,437.975,327.512,438.121,327.279Zm3.476-4.031c.117,0,.263-.2.438-.73.351-.935.613-2.425.847-3.36a22.961,22.961,0,0,0,.672-6.106c-.029-.351-.058-1.49-.292-1.461-.526.058-.234,2.22-.409,3.564-.292,2.22-1.052,4.353-1.49,6.515a2.818,2.818,0,0,0-.029.993c.029.351.117.613.263.584Z" transform="translate(-306.81 -277.088)"/>
      <path id="XMLID_59_" class="cls-1" d="M584.039,276.293a9.935,9.935,0,0,1-3.856-.818,7.78,7.78,0,0,1-3.243-2.22,5.98,5.98,0,0,1-.906-1.49c-.088-.175-.555-1.227-.906-1.2a.134.134,0,0,0-.146.175,4.166,4.166,0,0,0,.234.643c0,.088-.029.146-.146.146-.38.029-.935-1.344-.964-1.431a20.745,20.745,0,0,1-1.4-4.762c-.058-.672.029-1.227-.058-2.074a16.017,16.017,0,0,1-.146-1.665,21.585,21.585,0,0,1,.73-4.7c.321-1.461.672-2.98,1.11-4.382.906-2.863,2.045-5.638,3.184-8.413,1.139-2.746,2.249-5.58,3.447-8.355a71.7,71.7,0,0,1,4.148-8.355c.76-1.285,1.344-2.688,2.074-3.973.643-1.169,1.344-2.308,1.986-3.447.614-1.169,1.315-2.308,1.987-3.447.847-1.4,1.724-2.775,2.512-4.207.351-.613.672-1.256.993-1.9A7.284,7.284,0,0,1,595.7,208.4a4.365,4.365,0,0,1,1.519-.76c.292-.029.526.117.789.088s.526-.2.789-.234a2.024,2.024,0,0,1,.906.321,1.763,1.763,0,0,1,.7.351,1.606,1.606,0,0,0,.5.38c.263.088.555-.058.789.029.409.146.584.672.643,1.256a7.736,7.736,0,0,1-.088,1.928,4.224,4.224,0,0,0-.117,1.022,1.246,1.246,0,0,0,.175.526c.38.643.993,1.081,1.344,1.753a9.422,9.422,0,0,1,1.022,3.447,14.464,14.464,0,0,1-.789,5.551,21.409,21.409,0,0,1-1.724,3.71c-.7,1.373-1.519,2.717-2.308,4.031-.76,1.256-1.665,2.4-2.483,3.622a31.081,31.081,0,0,1-2.337,3.126c-.964,1.2-1.957,2.4-2.863,3.652-.935,1.315-1.87,2.6-2.834,3.885-.409.555-.818,1.081-1.2,1.636-.409.613-.906,1.081-1.344,1.665a7.516,7.516,0,0,1-1.11,1.431,9.356,9.356,0,0,0-1.227,1.607,11.465,11.465,0,0,1-1.49,1.665,1.234,1.234,0,0,1-.847.38c-.117,0-.234.029-.38.029-.088,0-.175.029-.263.029-.292.058-.555.088-.818.117-.38.058-.438.292-.643.7a5.591,5.591,0,0,0-.321,1.49c0,.088.088.088.117.088.117,0,.146-.117.175-.117s.117.058.117.234c.029.263-.058.38-.175.38a.508.508,0,0,1-.321-.175,3.51,3.51,0,0,0-.789,1.782c0,.117.058.146.117.146.175-.029.526-.5.555-.584.058.058.058.175.088.263a2.834,2.834,0,0,1-.5,1.49c-.321.438-.789.935-.76,1.315.029.263.292.409.321.643,0,.117-.146.351-.2.76-.088.467-.643.876-.584,1.285.029.321.38.409.409.7a4.719,4.719,0,0,1,0,.643,23.442,23.442,0,0,0,.088,2.863,2.711,2.711,0,0,0,.467,1.461c.38.467,1.139.38,1.694.321a10.524,10.524,0,0,0,2.834-.818,26.542,26.542,0,0,0,2.834-1.2,44.693,44.693,0,0,0,4.937-3.389,116.561,116.561,0,0,0,9.2-7.771l2.191-2.016a26.117,26.117,0,0,1,2.074-1.957c.292-.2.643-.2.935-.438.058-.058.584-.73.818-.76.058,0,.117.029.146.175.058.467-1.052,1.344-1.315,1.519a4.607,4.607,0,0,0-1.373,1.811.6.6,0,0,1-.38.38,3.39,3.39,0,0,0-.467.175c-.409.2-.438.438-.789.76a1.955,1.955,0,0,0-.584.613,4.082,4.082,0,0,1-.438.964c-.2.263-.409.234-.614.409a3.511,3.511,0,0,0-.643,1.052c-.088.175-.613.76-.584.935,0,.234.146.263.292.234.175,0,.38-.058.409.234.058.5-1.081,1.139-1.052,1.431,0,.058.058.088.117.088a12.29,12.29,0,0,0,2.308-1.665c.2-.146,1.607-1.724,1.957-1.782a.157.157,0,0,1,.117.088c.029.234-1.022,1.052-1.11,1.256-.117.2-.058.438-.117.643a3.208,3.208,0,0,1-.643.906,7.414,7.414,0,0,1-1.519,1.2,10.63,10.63,0,0,0-1.431,1.782c-.993,1.2-1.928,2.337-3.009,3.418a30.945,30.945,0,0,1-3.447,3.33,35.425,35.425,0,0,1-4.119,2.308c-.7.38-1.4.76-2.1,1.11-.73.38-1.081.847-1.9.935Zm-9.553-9.64c.058,0,.146-.088.2-.351a2.907,2.907,0,0,0,.029-.876,6.416,6.416,0,0,1-.029-1.052,16.073,16.073,0,0,1,.321-2.016,66.939,66.939,0,0,1,1.548-6.778c.175-.555.438-1.081.614-1.636a13.9,13.9,0,0,0,.292-1.519c.175-.643.584-1.169.818-1.782.2-.555.321-1.11.555-1.636a18.877,18.877,0,0,0,1.081-2.951,11.9,11.9,0,0,1,.526-1.285c.234-.526.584-.906.847-1.4a29.925,29.925,0,0,0,.964-2.863A38.953,38.953,0,0,1,583.981,237c.526-.993.906-2.074,1.344-3.126a1.952,1.952,0,0,0,.146-.555.136.136,0,0,0-.175-.146c-.292.029-.876,1.665-.993,1.957-1.139,2.308-2.22,4.645-3.3,6.982-1.139,2.454-2.045,5-3.1,7.479-.5,1.2-.935,2.454-1.431,3.681-.2.526-.263,1.11-.467,1.665s-.409,1.052-.555,1.607c-.38,1.431-.643,2.863-.935,4.324a16.482,16.482,0,0,0-.38,4.645c.029.351.117,1.169.351,1.139ZM584.1,247.81c.292-.029.73-.789,1.344-1.139.321-.175.234-.2.321-.584.058-.2.234-.146.321-.292.146-.234.088-.292.175-.555a1.22,1.22,0,0,1,.38-.613c.175-.175.351-.321.526-.5.146-.175.234-.409.38-.584.117-.117.175-.175.263-.175h.175c.117,0,.175-.117.2-.234a1.222,1.222,0,0,1,.117-.292c.117-.2.263-.38.38-.584.146-.263.234-.5.38-.73a3.255,3.255,0,0,1,.467-.7c.38-.409.7-.818,1.052-1.227.409-.5.613-1.11,1.052-1.578a1.843,1.843,0,0,0,.5-1.139c.146-.643.643-1.022.993-1.548.613-.935.73-2.162,1.461-2.951.351-.38.234-.7.438-1.052.117-.2.409-.175.38-.555a4.277,4.277,0,0,1-.146-.584,5.68,5.68,0,0,1,.058-.7,1.458,1.458,0,0,1,.146-.847c.321-.672.73-1.285,1.022-1.957.526-1.2,1.169-2.279,1.607-3.535a16.013,16.013,0,0,0,.614-1.49,10.556,10.556,0,0,1,.555-1.87,2.988,2.988,0,0,0,.409-1.139,1.365,1.365,0,0,1-.058-.467c.058-.2.438-.584.409-.876,0-.117-.117-.263-.234-.234a4.488,4.488,0,0,0-1.081,1.373c-.438.7-.876,1.461-.993,1.665a32.3,32.3,0,0,1-2.4,3.827c-.7.847-1.022,1.84-1.694,2.688a26.236,26.236,0,0,0-2.337,3.681c-.613,1.169-1.2,2.366-1.811,3.476-.847,1.636-1.694,3.272-2.483,4.937-.643,1.315-1.227,2.658-1.782,4-.321.789-.643,1.578-.935,2.366a1.933,1.933,0,0,0-.146.76c0,.058.088.175.058.263-.029.146-.234.234-.292.38a1.989,1.989,0,0,0-.058.876c-.088.175.146.438.263.438Zm13.234,16.213c.146-.088.876-.467.847-.672,0-.117-.088-.175-.234-.146-.643.058-2.337,1.4-2.308,1.753,0,.088.088.175.234.146C596.221,265.076,597.1,264.2,597.331,264.024Zm3.213-3.243c-.2.029-.292-.029-.321-.117-.029-.146.117-.351.263-.526.438-.5.993-.876,1.461-1.344.38-.38.584-.876,1.052-1.139a2.742,2.742,0,0,0,.76-.409c.2-.175.321-.438.526-.643a.888.888,0,0,1,.351-.234c.058,0,.117.029.117.088a.881.881,0,0,1-.117.38,11.986,11.986,0,0,1-1.373,1.636,17.119,17.119,0,0,1-1.285,1.227c-.292.263-.964,1.022-1.431,1.081Z" transform="translate(-432.395 -207.494)"/>
      <path id="XMLID_65_" class="cls-1" d="M624.386,383.843c-1.519.146-5.317-1.285-6.6-3.652a7.584,7.584,0,0,1-.847-2.717c-.2-1.928.847-3.476,1.081-5.229a8.792,8.792,0,0,1,.029-1.519,14.157,14.157,0,0,1,.847-1.782,27.932,27.932,0,0,1,2.249-3.827c1.578-2.425,3.593-4.47,5.142-6.924,1.431-2.249,3.36-4,5.054-6.018a47.972,47.972,0,0,1,6.076-6.339c2.133-1.782,4.178-3.652,6.31-5.463a49.5,49.5,0,0,1,6.369-4.674c1.344-.818,2.658-1.461,3.944-2.4a5.274,5.274,0,0,0,2.279-3.33c.2-.643,2.688-7.566,2.542-8.91-.029-.146-.058-.234-.117-.234-.526.058-3.8,4.44-4.324,4.937-.7.672-1.49,1.315-2.162,1.987-.526.526-.906,1.2-1.431,1.782-1.578,1.782-3.3,3.389-5.025,5.025-.818.789-1.607,1.636-2.454,2.425-.935.876-2.308,2.717-3.506,3.184a3.2,3.2,0,0,1-.76.175,5.769,5.769,0,0,1-4.411-1.636A11.662,11.662,0,0,1,633.3,335.7a6.942,6.942,0,0,1-1.052-2.454,16.553,16.553,0,0,1,1.431-6.631c.058-.117.438-1.022.906-2.016.672-1.431,1.519-3.1,1.811-2.98-.234.555-1.023,2.483-1.782,4.47a22.576,22.576,0,0,0-1.49,4.82c0,.117.058.2.117.175.672-.058,1.636-3.71,1.928-4.207.906-1.636,1.753-3.36,2.542-5.054a7.944,7.944,0,0,0,.643-1.811c.029-.117-.2-.175-.146-.409a6.183,6.183,0,0,1,.526-1.081,3.665,3.665,0,0,0,.643-1.782,1.187,1.187,0,0,1,0-.555c.263-.964,1.227-1.724,1.607-2.629.672-1.607,1.373-3.3,2.22-4.908.438-.847.906-1.636,1.344-2.483s.818-2.074,1.636-2.6a6.263,6.263,0,0,1,2.045-.7c.993-.117,1.227.467,1.84.964.643.555,1.139.76,1.49,1.636a5.605,5.605,0,0,1,.438,1.636,1.645,1.645,0,0,1,0,.38c-.117,1.11-1.578,2.775-2.22,3.681a35.416,35.416,0,0,0-2.863,4.587c-.73,1.461-1.548,2.892-2.366,4.324-1.023,1.811-2.045,3.622-2.951,5.492-.876,1.84-1.9,3.681-2.6,5.609-.117.292-.789,1.315-.73,1.9.058.526.263.613.321.613.38-.029,1.694-1.285,1.87-1.4a36.192,36.192,0,0,0,4-3.915c1.256-1.256,2.629-2.425,3.768-3.769,1.227-1.461,2.688-2.717,3.944-4.119,1.636-1.84,3.155-3.739,4.762-5.638a27.8,27.8,0,0,0,2.22-2.688,14.469,14.469,0,0,0,1.694-2.571,8.181,8.181,0,0,0,.175-2.045c-.029-.263-.088-.76-.321-.73-.351.029-.555,1.052-.847,1.081-.146,0-.2-.058-.2-.2a2.945,2.945,0,0,1,.964-1.753,1.554,1.554,0,0,1,.76-.234,8.068,8.068,0,0,1,1.724.146c.73.088,1.373.526,1.84.467.2-.029.351-.029.526-.058a.491.491,0,0,1,.526.438c0,.263-.088.321-.058.613.029.351,1.432.5,1.782.76a3.658,3.658,0,0,1,1.2,1.9c.088.643-.321.789-.76.935-.38.117-.789.2-.993.584a2.085,2.085,0,0,0-.058.906c.029.321.088.7.117.964,0,.117.029.2.029.292a37.261,37.261,0,0,1-.789,5.375c-.438,2.279-1.052,4.528-1.607,6.807-.292,1.169-1.256,3.535-1.2,3.973.058.467.584.76.584.993,0,.38-.73.438-.7.76.029.292.351.409.7.38.38-.029.847-.175,1.256-.2s.7.058.73.351a.322.322,0,0,1-.292.38h-.438c-.263.029-.672.351-.672.555.029.321.935.351,1.256.526a1.246,1.246,0,0,1,.672.818.368.368,0,0,1-.351.438c-.438.058-.847-.409-1.256-.351a7.281,7.281,0,0,0-1.753.409c-1.957.789-2.629,2.1-3.535,3.915s-1.665,3.739-2.542,5.58c-.964,2.016-2.016,4-3.1,5.96q-1.49,2.673-3.067,5.258c-.964,1.578-1.87,3.214-2.834,4.791-1.022,1.665-1.84,3.447-3.009,5.054-1.4,1.928-2.775,3.885-4.177,5.814a53.819,53.819,0,0,1-4.82,5.784,33.369,33.369,0,0,1-5.375,4.557,12.679,12.679,0,0,1-3.184,1.49,15.889,15.889,0,0,1-3.359.789Zm2.892-4.937a18.8,18.8,0,0,0,4.44-3.885,38.462,38.462,0,0,0,4.09-4.645c.234-.351,1.578-2.308,2.892-4.294,1.344-2.045,2.658-4.031,2.629-4.411,0-.058-.029-.146-.088-.146-.351.029-.526.818-.76.847-.117,0-.175-.146-.175-.234,0-.555,1.694-1.4,1.811-1.49a2.017,2.017,0,0,0,.789-1.11,3.564,3.564,0,0,1,.613-1.2,18.965,18.965,0,0,0,2.133-3.33c.234-.5.993-1.519.964-1.928-.029-.263-.292-.234-.321-.467-.088-.964.993-1.928,1.461-2.658a36.163,36.163,0,0,0,1.753-3.535,19.21,19.21,0,0,0,1.49-3.009,1.077,1.077,0,0,0,.058-.5c-.029-.234-.175-.321-.409-.292a4.239,4.239,0,0,0-1.315.584c-.234.146-1.139,1.052-1.49,1.081-.088,0-.117,0-.146-.088a1.472,1.472,0,0,1,.351-.5c.789-.935,2.279-1.256,3.067-2.249.234-.321.058-.555.2-.847.088-.175.906-.526.847-.847,0-.117-.117-.117-.263-.117-.73.088-2.688,1.84-2.98,2.016a50.564,50.564,0,0,0-6.135,5.025,55.729,55.729,0,0,0-4.557,4.119c-1.081,1.2-2.4,2.366-3.593,3.564a17.408,17.408,0,0,0-2.658,3.272,3.5,3.5,0,0,0-.526,1.4.155.155,0,0,0,.175.175,1.274,1.274,0,0,0,.643-.38c.76-.643,1.665-2.658,2.688-2.775-.029.643-1.4,1.9-1.84,2.454-.789.964-1.578,1.928-2.337,2.921-1.519,1.987-3.1,3.827-4.44,5.96-1.315,2.133-2.717,4.236-3.885,6.456a7.941,7.941,0,0,0-1.052,2.688c.088.876,2.337.73,3.038.672,1.169-.117,2.1-1.578,2.892-2.366,1.315-1.285,2.658-2.542,3.944-3.856.321-.321,1.753-2.249,3.126-4,1.256-1.607,2.483-3.126,2.746-3.126.058,0,.088.029.088.117.058.409-1.11,2.249-2.366,3.915-1.782,2.366-3.944,4.966-4.265,5.346a21.51,21.51,0,0,0-2.1,2.22,6.517,6.517,0,0,1-1.052,1.694c-.409.409-2.249,1.519-2.191,2.1.029.175.146.2.351.2A3.668,3.668,0,0,0,627.278,378.906Zm4.324-22.115c.76-.088,5.054-5.171,5.551-5.609,1.169-1.022,2.22-2.133,3.359-3.155.614-.555,1.2-1.139,1.84-1.665.029-.029.789-.643.789-.876,0-.088-.058-.117-.146-.088-.351.029-.993.672-1.9,1.4-.643.526-1.578,1.081-2.016,1.461a12.583,12.583,0,0,0-1.344,1.139c-.467.526-.672,1.169-1.081,1.724-.38.5-5.229,5.054-5.2,5.58,0,.058.029.088.146.088Zm4.733,15.191c.584-.7,1.139-1.285,1.139-1.607,0-.088-.029-.146-.146-.117-.467.058-1.081.935-1.256,1.081-.643.526-1.4,1.4-1.344,1.987.029.146.088.2.2.175C635.136,373.5,635.75,372.684,636.334,371.982Zm1.461-2.162c.38-.029,1.285-1.49,1.344-1.607.438-.7.935-1.344,1.432-2.016.263-.38,1.022-.993,1.2-1.344.117-.234.029-.409.146-.73a8.147,8.147,0,0,1,1.169-1.665c.672-.906,1.169-1.9,1.753-2.834,1.373-2.191,2.542-4.557,3.944-6.719.555-.847.964-1.782,1.461-2.658a16.773,16.773,0,0,0,1.607-3.126c0-.088-.029-.117-.088-.117-.321.029-1.4,2.1-1.461,2.249-.555,1.052-1.315,1.957-1.84,2.98-1.052,2.045-2.133,4-3.389,5.96-1.139,1.84-2.425,3.564-3.564,5.375-.643,1.052-1.256,2.133-1.957,3.155-.467.672-2.1,2.074-2.045,2.8.088.263.175.321.292.292Zm6.018-25.007a4.712,4.712,0,0,0,1.4-.906c.614-.5,1.169-1.052,1.139-1.2,0-.117-.058-.146-.175-.146a7.313,7.313,0,0,0-2.512,2.22.263.263,0,0,0,.146.029Zm5.434-4.353c0-.088-.058-.117-.146-.088-.409.058-1.4.906-1.373,1.169,0,.058.029.088.088.058C648.107,341.571,649.276,340.724,649.247,340.461Zm2.22-1.578c-.029-.029-.058-.029-.117,0a2.851,2.851,0,0,0-1.315,1.052C650.269,339.935,651.35,339.409,651.467,338.884Zm2.162-15.22c.584-.643,1.432-1.139,1.957-1.811,1.081-1.344,2.22-2.658,3.389-3.944.38-.438,1.753-2.571,1.636-3.739-.029-.38-.234-.789-.643-.73-.526.058-1.49,1.811-1.724,2.162-.117.146-1.928,1.753-1.9,2.191,0,.088.029.117.175.117.643-.058,1.578-2.22,2.162-2.279.088,0,.146.029.146.088,0,.351-1.256,1.694-1.4,1.928a31.457,31.457,0,0,1-2.425,3.1c-.818.935-1.724,1.811-2.571,2.746-.234.263-1.227,1.11-1.169,1.578a.336.336,0,0,0,.38.263C652.46,325.212,653.073,324.277,653.629,323.663Zm-1.461,22.348c.351-.029,1.139-1.811,1.11-2.22,0-.058-.029-.146-.088-.146a4.774,4.774,0,0,0-1.11,2.279c0,.088.029.088.088.088Z" transform="translate(-463.832 -274.992)"/>
    </g>
    <g id="XMLID_2_" transform="translate(131.907 277.813)">
      <path id="XMLID_90_" class="cls-1" d="M330.371,459.77c3.418-.7,6.836-1.4,10.283-2.016a14.062,14.062,0,0,1,2.483-.292h.584a1.911,1.911,0,0,0,1.2-.321,3.489,3.489,0,0,1,1.431-.292c.847-.088,1.694-.292,2.542-.438,2.045-.351,4.09-.555,6.135-.7a.292.292,0,0,1,.146-.117,1.186,1.186,0,0,0,.263-.146c0-.029.029-.088.029-.117a6.87,6.87,0,0,1,1.315-1.578,3.186,3.186,0,0,0-.5-.029c-.409,0-.584-.058-.584-.146,0-.2.818-.5,1.461-.5a.21.21,0,0,1,.2.117c.263-.263.555-.5.818-.76l.263-.263a7.583,7.583,0,0,0-1.373.263,2.515,2.515,0,0,1-.789.088c-.321,0-.643-.029-.964-.029a6.586,6.586,0,0,0-1.519.234,9.445,9.445,0,0,1-2.308.438c-.234,0-.263-.088-.263-.175s.058-.2.058-.292c0-.029-.117-.088-.175-.088-.5,0-1.461.76-1.694.818a16.892,16.892,0,0,1-3.447.467c-2.366.2-4.674.789-7.011,1.139-.38.058-3.009.7-3.213.409h0a.263.263,0,0,1-.029-.146c0-.438,1.344-.613,1.607-.672.876-.146,2.016-.409,3.067-.643a32.835,32.835,0,0,1,3.3-.73c.321,0,.555.146.847.146.351,0,.76-.292,1.139-.351.847-.175,1.753-.263,2.629-.38.847-.117,1.753-.351,2.629-.409h.263c.555,0,1.081.117,1.665.117a7.16,7.16,0,0,0,1.928-.467c.73-.146,1.578-.351,2.337-.438h.117a7.056,7.056,0,0,1,1.548.38c.584-.584,1.169-1.2,1.782-1.753-3.681.321-7.362.73-11.013,1.169-7.011.847-13.964,2.133-20.888,3.476-1.928.38-3.827.789-5.726,1.2-1.519.321-3.067.38-4.587.76-3.389.847-6.748,1.9-10.137,2.775-14.139,3.564-28.133,7.829-42.418,10.809-3.36.7-6.719,1.11-10.137,1.519a78.582,78.582,0,0,1-9.436.818c-2.1,0-4.207-.2-6.31-.38-1.84-.175-3.243-.993-4.966-1.548a8.428,8.428,0,0,1-1.724-.526,6.734,6.734,0,0,1-1.665-1.344,5.176,5.176,0,0,1-1.256-3.447c0-1.957.818-3.856,1.373-5.755.351-1.256,1.139-2.863,1.139-4.177,0-1.139-.847-2.658-2.074-2.658-1.694,0-2.308,2.4-2.892,3.681a16.279,16.279,0,0,0-1.461,6.807,15.539,15.539,0,0,0,4.09,10.809,8.188,8.188,0,0,0,1.87,1.285c.613.38,1.11.906,1.694,1.285A11.112,11.112,0,0,0,238.261,478a47.24,47.24,0,0,0,7.683.73,24.87,24.87,0,0,0,3.33-.2c3.476-.467,6.894-1.256,10.342-1.811,3.418-.555,6.836-1.11,10.254-1.84a104.711,104.711,0,0,1,10.342-2.133c1.4-.146,2.6-.906,4-1.2a45.109,45.109,0,0,0,4.762-1.139c6.6-2.279,13.467-3.885,20.216-5.667,3.447-.935,6.894-1.957,10.4-2.688C323.1,461.23,326.748,460.5,330.371,459.77Zm-5.463-.964a35.1,35.1,0,0,1-3.506.993c-.234,0-.38-.029-.38-.117,0-.613,3.3-1.256,3.769-1.373.292-.058,3.535-.672,4-.672.146,0,.321.029.321.175C329.085,458.163,326.953,458.309,324.908,458.806Zm18.492-3.769c.964-.175,1.928-.321,2.892-.5a38.932,38.932,0,0,1,6.339-.876c.409,0,.584.088.584.2,0,.146-.321.321-.818.351-1.052.088-2.133.117-3.184.2-2.074.146-4.061.964-6.135,1.256-.2,0-.818-.058-.847-.351C342.2,455.154,343.254,455.066,343.4,455.037Zm-3.126.5a4.5,4.5,0,0,1,.906-.175c.2,0,.351.058.351.2,0,.292-1.081.584-1.519.584-.613,0-1.285-.058-1.285-.263C338.726,455.709,340.04,455.592,340.274,455.534Zm-4.411.7a11.4,11.4,0,0,1,1.9-.38c.263,0,.467.058.467.263,0,.526-2.863.906-3.155.935a23.962,23.962,0,0,0-4.265.847c-.438-.029-.613-.146-.613-.292,0-.175.263-.351.613-.467a12.743,12.743,0,0,1,2.337-.467C334.052,456.5,334.957,456.381,335.863,456.235Zm-20.712,3.1c.906-.292,1.811-.526,2.717-.73,1.9-.438,3.8-.818,5.7-1.227,3.769-.789,7.625-1.811,11.452-2.249.2.058.263.117.263.175,0,.263-1.4.467-1.578.526-.789.175-1.548.351-2.337.526-1.84.438-3.71.73-5.58,1.081s-3.681.818-5.521,1.256a34.871,34.871,0,0,1-5.434,1.256h-.2c-.234,0-.321-.029-.321-.117C314.274,459.711,314.741,459.448,315.15,459.331Zm-8.063,2.22a1.1,1.1,0,0,1,.409-.409,10.328,10.328,0,0,1,1.928-.467l1.928-.467a8.453,8.453,0,0,1,1.431-.38.219.219,0,0,1,.146.029c.146.058.2.146.2.2,0,.38-1.782.76-2.074.847a19.247,19.247,0,0,1-3.681.876C307.117,461.785,307.058,461.669,307.088,461.552Zm-9.845,2.454c1.052-.263,2.133-.5,3.184-.76a24.713,24.713,0,0,0,2.863-.847,6.907,6.907,0,0,1,2.22-.76,1.985,1.985,0,0,1,.555.088c.263.088.38.175.38.263,0,.263-1.11.409-1.461.5-.964.263-1.928.5-2.921.76-1.256.321-2.892.847-4.207,1.2a9.088,9.088,0,0,1-2.045.38c-.175,0-.234-.088-.234-.146C295.577,464.444,297.1,464.035,297.243,464.006Zm-7.157,2.016a18.026,18.026,0,0,1,1.782-.555,10.767,10.767,0,0,1,2.483-.818.433.433,0,0,1,.2.029c.2.088.263.175.263.234,0,.351-1.461.672-1.665.7a25.556,25.556,0,0,1-3.243.876c-.234,0-.292-.058-.292-.117C289.618,466.284,289.91,466.08,290.085,466.021Zm-1.782.467c.146,0,.351,0,.351.146,0,.263-1.4.818-2.016.818a.164.164,0,0,1-.175-.146C286.463,466.956,288.128,466.489,288.3,466.489Zm-5.521,1.49a12.074,12.074,0,0,1,2.454-.613c.117,0,.2-.029.292-.029.175,0,.263.029.263.058,0,.117-.613.409-.935.526a5.06,5.06,0,0,1-2.016.584c-.351,0-.5-.117-.5-.2C282.315,468.212,282.49,468.1,282.782,467.979Zm-12.24,4.82c-.876.117-1.782.263-2.658.438a12.532,12.532,0,0,1-2.045.438,1.1,1.1,0,0,1-.321-.029c-.234-.088-.321-.146-.321-.234,0-.292,1.9-.935,2.249-1.022a27.283,27.283,0,0,1,4.82-.672c.438,0,1.227.058,1.227.321C273.463,472.682,271.3,472.682,270.542,472.8Zm4-.876c-.2,0-.263-.029-.263-.088,0-.175,1.11-.643,1.461-.643.2,0,.438.117.438.2C276.18,471.659,274.807,471.922,274.544,471.922Zm7.537-1.694a11.5,11.5,0,0,1-2.483.526c-.351,0-.5-.175-.5-.263,0-.321,1.811-.73,2.162-.789a13.78,13.78,0,0,1,2.688-.613c.263,0,.351.029.351.088C284.3,469.439,282.373,470.14,282.081,470.228Zm5.346-1.373a17.792,17.792,0,0,1-2.542.409c-.146,0-.234,0-.234-.058,0-.409,2.249-1.022,2.746-1.022.438,0,.643.146.613.292C287.982,468.592,287.807,468.767,287.427,468.855Zm9.991-2.951c-.847.234-1.724.38-2.571.643a46.341,46.341,0,0,1-5.989,1.694c-.2,0-.292-.117-.292-.175,0-.263,1.227-.7,1.431-.789q1.358-.482,2.8-.876a26.416,26.416,0,0,1,5.288-1.315h.146c.2,0,.292.029.292.117C298.557,465.408,297.71,465.817,297.418,465.9Zm11.539-3.126c-.993.263-1.957.555-2.951.818-.263.088-1.548.5-2.892.906a18.672,18.672,0,0,1-3.3.789c-.175,0-.292-.029-.292-.117,0-.38,1.139-.73,2.571-1.169,1.2-.38,2.688-.847,2.951-.935.876-.234,1.724-.438,2.6-.613.555-.117,1.169-.263,1.753-.409a8.934,8.934,0,0,1,1.724-.2c.175,0,.351,0,.351.146C311.47,462.253,309.279,462.691,308.957,462.779Zm7.917-1.928a34.158,34.158,0,0,1-3.915.789c-.2,0-.351-.029-.351-.088,0-.292,1.9-.818,3.769-1.285a25.289,25.289,0,0,1,3.213-.76c.234,0,.409.029.409.175,0,.175-1.052.584-1.169.613A14.967,14.967,0,0,1,316.874,460.851Z" transform="translate(-226.4 -449.545)"/>
      <path id="XMLID_31_" class="cls-1" d="M684.486,450.215c.73,0,1.431.088,2.191.117.584-.5,1.2-.964,1.782-1.431-1.373.058-2.717.146-4.09.263-.643.555-1.256,1.169-1.87,1.782.5-.2.847-.613,1.49-.7A2.674,2.674,0,0,1,684.486,450.215Z" transform="translate(-549.257 -448.695)"/>
      <path id="XMLID_30_" class="cls-1" d="M698.446,455.206c.351-.292.672-.555,1.022-.847-.029-.029-.058-.029-.088-.058-.146.117-.321.263-.467.38-.029.029-.029.029-.058.029-.175.234-.38.438-.555.643Z" transform="translate(-560.442 -452.518)"/>
      <path id="XMLID_33_" class="cls-1" d="M736.611,451.267c-.5-.029-.964-.117-.964-.263.029-.263.73-.321,1.256-.321.029-.029.029-.058.058-.117.38-.818.906-1.578,1.373-2.366H734.8a1.646,1.646,0,0,1-.117.351v.029h0a.1.1,0,0,1-.029.058.222.222,0,0,1-.263.146,3.811,3.811,0,0,1-.292.438c1.081,0,2.22.088,2.22.5,0,.2-1.052.292-2.454.321h-.351c-.351.906-.73,1.782-1.081,2.658a4.165,4.165,0,0,0-.234.643c1.139-.029,2.249-.088,3.389-.146C735.91,452.611,736.29,451.939,736.611,451.267Z" transform="translate(-584.438 -448.2)"/>
      <path id="XMLID_36_" class="cls-1" d="M619.589,456.567c-1.987-2.279-5.025-3.593-7.771-4.733a54.509,54.509,0,0,0-10.166-2.542,63.024,63.024,0,0,0-11.013-.993c-.467.818-1.022,1.578-1.431,2.425h.438c.584,0,1.49.088,1.49.526,0,.2-.292.263-.643.263-.467,0-1.052-.117-1.2-.117h-.38a17.048,17.048,0,0,1-1.023,1.9c.876-.029,1.753-.058,2.629-.058,1.636,0,3.3.029,4.937.175,1.519.146,3.009.38,4.5.526a35.356,35.356,0,0,1,4.587.906c.584.146,1.2.058,1.724.234.613.2,1.139.613,1.782.818,1.315.409,2.717.234,3.827,1.11,1.023.818,2.249.964,3.33,1.665.818.526,1.548,1.052,2.4,1.49a4.482,4.482,0,0,1,1.665,1.373,3.062,3.062,0,0,1,.643,1.84,9.753,9.753,0,0,1-.351,2.016c-.38,1.49-.613,3.213-1.724,4.353a15.955,15.955,0,0,1-2.688,2.746,27.814,27.814,0,0,0-3.681,2.98,38.95,38.95,0,0,0-3.1,2.658,4.136,4.136,0,0,1-1.49,1.256,5.746,5.746,0,0,0-1.811.993c-.467.555-.409.964-1.139,1.344a3.236,3.236,0,0,1-.555.263c-.117.029-.2-.2-.409-.175-.643.146-1.548,1.227-2.074,1.607a19.982,19.982,0,0,1-2.1,1.373c-1.2.7-2.629.818-3.827,1.519-.76.438-1.373,1.052-2.191,1.431-.643.292-1.315.584-1.957.847a6.938,6.938,0,0,1-2.629.73c-.584,0-.906-.088-1.4-.088-.613,0-.38.5-.38.818,0,.175-.643.263-1.139.263-.613,0-.467-.847-1.285-.847a8.48,8.48,0,0,0-.993.2c-.5.088-1.315,0-1.315.5,0,.263.175.38.175.613,0,.292-.964.584-1.811.584-.5,0-.847-.263-1.4-.263-.5,0-3.155.526-4.674.789-2.951.5-5.9.876-8.881,1.11-3.067.263-6.106.38-9.173.38a91.376,91.376,0,0,1-12.649-.818,77.353,77.353,0,0,1-9.29-2.016c-1.578-.438-3.535-.7-4.849-1.753-.555-.438-.935-1.022-1.519-1.461a2.467,2.467,0,0,1-1.022-1.344,3.3,3.3,0,0,1-.234-1.022.864.864,0,0,1,.058-.292c.088-.2.438-.263.584-.38.409-.409.526-.993.906-1.461a14.015,14.015,0,0,1,3.71-2.951c1.431-.818,3.126-.935,4.645-1.548,1.373-.555,2.746-1.139,4.119-1.665a61.555,61.555,0,0,1,10.225-2.542c.088-.029.175-.029.263-.058.117-.321.292-.613.38-.935a5.427,5.427,0,0,1,.7-1.431c.555-.847.993-1.753,1.49-2.629a2.409,2.409,0,0,1-.964.351c-.7,0-1.052-.029-1.724-.029a6.744,6.744,0,0,0-1.081.088c-.818.146-1.636.351-2.425.526-1.519.351-3.009.672-4.528,1.081-1.607.438-3.213.876-4.82,1.373a42.827,42.827,0,0,0-5.112,1.928c-1.344.643-2.366,1.87-3.71,2.483-.672.292-.876.263-1.344.876a11.725,11.725,0,0,1-1.49,1.461c-1.87,1.694-3.622,3.769-3.622,6.252a5.508,5.508,0,0,0,.292,1.753,11.784,11.784,0,0,0,1.84,4.207,12.077,12.077,0,0,0,3.389,2.8,24,24,0,0,0,4.645,1.724,45.116,45.116,0,0,0,4.908,1.4c3.272.613,6.661,1.022,9.962,1.519a32.868,32.868,0,0,0,4.82.292h0c1.607,0,3.243-.058,4.82-.058a110.063,110.063,0,0,0,11.189-.7c3.593-.351,7.245-.555,10.809-1.227,1.636-.292,3.359-.5,4.937-.906.818-.2,1.578-.584,2.425-.73a14.612,14.612,0,0,0,1.957-.438,84.93,84.93,0,0,0,9.465-3.739c3.1-1.373,5.989-3.243,9-4.82,1.548-.818,2.98-1.724,4.44-2.688a18.109,18.109,0,0,0,3.652-2.8,12.79,12.79,0,0,1,1.052-1.139c.409-.351.5-.234.906-.38.672-.263.76-.847,1.2-1.431.847-1.169,2.045-1.9,2.834-3.126a16.432,16.432,0,0,0,2.6-8.764C623.649,462.293,622.043,459.372,619.589,456.567Zm-24.656-5h0a19.306,19.306,0,0,1-2.162-.146c-.351-.058-.643-.117-.643-.263,0-.175.409-.263.614-.263.38,0,.906.117,1.2.117.088,0,.672,0,1.227.029.526.029,1.052.088,1.052.263C596.247,451.426,595.663,451.572,594.932,451.572Zm1.49-1.315c-.058.146-.292.2-.614.2h0a10.154,10.154,0,0,1-1.548-.117c-.321-.058-2.279-.117-2.279-.467,0-.263.409-.321.789-.321.526,0,1.11.146,1.315.146a11.76,11.76,0,0,1,1.753.117C596.218,449.878,596.51,450.024,596.422,450.257ZM549.33,470.94a.863.863,0,0,1,.292.058c.2.117.292.2.292.263,0,.175-.76.38-1.256.409-.263,0-.38-.117-.38-.175C548.279,471.291,548.892,470.94,549.33,470.94Zm-1.665,1.578a3.163,3.163,0,0,1,.876-.234c.029,0,.088,0,.088.029.088.029.117.058.117.117a3.841,3.841,0,0,1-1.519.613c-.175,0-.234-.029-.234-.058C546.964,472.839,547.285,472.664,547.665,472.518Zm-4.616,1.022c.146-.146.555-.117.76-.175a7.932,7.932,0,0,1,1.373-.321.315.315,0,0,1,.234.058c.058.029.088.058.088.117,0,.175-.467.351-.964.5a7.4,7.4,0,0,1-1.344.263c-.175,0-.234-.088-.234-.175C542.932,473.716,542.991,473.628,543.049,473.54Zm35.728,21.735a19.719,19.719,0,0,1-3.476.643c-2.425.409-4.849.789-7.3,1.022-2.366.234-4.733.351-7.128.409a26.515,26.515,0,0,1-3.418.2h0c-.467-.058-.847-.292-1.285-.351h-.175a7.781,7.781,0,0,0-1.139.2,15.7,15.7,0,0,1-2.045.117c-1.724,0-3.506-.2-5.171-.351-1.227-.117-2.454-.263-3.681-.38a5.406,5.406,0,0,1-1.373-.234c-.292-.117-.526-.351-.847-.351-.321-.029-.613.146-.935.146a2.77,2.77,0,0,1-.672-.146c-.409-.117-.847-.234-1.256-.38a9.249,9.249,0,0,0-1.11-.5,1.2,1.2,0,0,0-.321-.029c-.409,0-.76.175-1.2.146-.614-.029-.789-.38-1.285-.613a5.152,5.152,0,0,0-1.49-.263,7.16,7.16,0,0,1-2.775-.76c-.5-.263-.935-.613-1.431-.906-.263-.146-1.139-.38-1.139-.76,0-.146.117-.175.321-.175.467,0,1.344.292,1.694.292.2,0,.38-.088.38-.2,0-.146-.2-.263-.2-.467a.361.361,0,0,1,.409-.38.7.7,0,0,1,.409.146.943.943,0,0,1,.351.672c.029.175.058.321.292.321a2.2,2.2,0,0,0,.5-.088,3.205,3.205,0,0,1,1.022-.146,12.582,12.582,0,0,1,2.629.5,17.51,17.51,0,0,1,3.243.789c.555.263.351.467.672.847.2.234.467.2.789.263a7.778,7.778,0,0,0,1.139.2,1.645,1.645,0,0,0,.876-.351,1.3,1.3,0,0,1,.672-.263.39.39,0,0,1,.409.321c.088.175.175.351.467.351.263,0,.526-.263.73-.38a1.845,1.845,0,0,1,.76-.234,12.279,12.279,0,0,1,1.811.234c.263.029,1.578,0,1.578.409,0,.146-.2.263-.2.409a.4.4,0,0,0,.146.263,4.918,4.918,0,0,0,1.87.175h.614c.643,0,1.285.058,1.928,0,.5-.029.906-.292,1.344-.292.292,0,.5.234.993.234.555,0,1.169-.117,2.016-.117.38,0,1.081.029,1.139.029.351,0,1.139-.058,1.139-.321,0-.088-.175-.058-.175-.234s.613-.38.993-.38c.234,0,.818.058.818.175,0,.292-.643.234-.643.526,0,.117.38.2.438.2a11.114,11.114,0,0,0,1.724-.2,14.768,14.768,0,0,1,1.636-.351h.2c.351,0,.672.058.993.058a1.665,1.665,0,0,0,.643-.117c.292-.146.409-.38.643-.38.526,0,.7.964,1.285.876.38-.058.73-.613,1.169-.7s.964-.029,1.4-.088c.5-.029.467-.117.7-.117.146,0,.146.292.38.321h.117a2.047,2.047,0,0,0,.935-.38,1.571,1.571,0,0,1,.789-.263,1.736,1.736,0,0,1,.555.146c.292.146.351.321.613.321.643,0,.73-.876,1.169-.876.146,0,1.2.175,1.461.175.409,0,.847-.088,1.256-.088a2.876,2.876,0,0,1,.5.058q.438.131.438.351C580.15,494.574,579.128,495.129,578.777,495.275Zm2.366-.613c-.2,0-.672-.088-.672-.38,0-.2.5-.117.5-.321,0-.234-.467-.234-.467-.5,0-.058.088-.058.175-.058a6.506,6.506,0,0,1,1.081.2c.38.058.789.029.789.263C582.575,494.486,581.407,494.662,581.144,494.662Zm26.73-11.627c-1.548,1.052-3.126,1.957-4.733,2.921a26.79,26.79,0,0,1-2.512,1.461c-.789.409-1.724.526-2.483.964a38.618,38.618,0,0,1-5.317,2.542c-1.811.73-4.82,2.074-5.843,2.074-.2,0-.292-.088-.292-.2,0-.38.993-1.139,1.227-1.285a14.227,14.227,0,0,1,2.454-.818c1.928-.76,3.915-1.227,5.784-2.133a51.933,51.933,0,0,0,5.288-2.951c1.724-1.081,3.564-2.016,5.258-3.1.555-.351,3.418-2.951,4.382-2.951.234,0,.321.088.292.2C611.321,480.522,608.2,482.83,607.874,483.035Z" transform="translate(-436.07 -448.271)"/>
      <path id="XMLID_21_" class="cls-1" d="M701.178,451.56a2.332,2.332,0,0,1,.234-.467,7.1,7.1,0,0,1-1.285.263c-.263.029-.467.058-.584.058-.2,0-.292-.029-.292-.088,0-.175,1.081-.584,1.431-.584a3.287,3.287,0,0,1,.847.117c.088-.146.175-.321.263-.467a1.564,1.564,0,0,0,.146-.321h-.584c-.263,0-1.344.2-1.344-.2,0-.292.351-.526.672-.526a7.866,7.866,0,0,1,.935.146h.2a1.926,1.926,0,0,0,.409-.029c.175-.409.351-.847.555-1.256H701.09c-1.11,0-2.22.029-3.36.058-.409.409-.847.818-1.256,1.2.146-.029.292-.029.467-.058a11.086,11.086,0,0,1,1.344-.088c.672,0,1.139.058,1.139.146,0,.5-1.665.818-2.717.818a6.165,6.165,0,0,1-1.052-.088c-.351.321-.73.613-1.11.906l-.029.029c.117,0,.175.058.175.117s-.088.175-.292.292a1.646,1.646,0,0,1-.526.146c-.7.643-1.344,1.373-2.074,2.016a63.582,63.582,0,0,1,7.829-.351h.555C700.418,452.757,700.886,452.231,701.178,451.56Zm-4.265.058c-.146,0-1.519-.146-1.519-.467,0-.058.029-.088.088-.146.029-.029,1.052.117,1.081.117.321,0,.672-.058.993-.088a3.965,3.965,0,0,1,.526-.029c.292,0,.438.029.438.117C698.548,451.267,697.555,451.618,696.913,451.618Z" transform="translate(-555.841 -448.2)"/>
      <path id="XMLID_22_" class="cls-1" d="M730.126,448.254c-.175.38-.351.789-.526,1.2a5.429,5.429,0,0,1,.964-.117h.117c0-.029.029-.058.029-.088.146-.321.263-.643.438-.964A4,4,0,0,0,730.126,448.254Z" transform="translate(-582.598 -448.224)"/>
      <path id="XMLID_23_" class="cls-1" d="M723.99,455.214c-.292.526-.5,1.081-.76,1.607-.2.409-.5.73-.73,1.11h1.256a16.274,16.274,0,0,0,1.2-2.22c.146-.38.263-.73.38-1.11h-1.081A2.775,2.775,0,0,1,723.99,455.214Z" transform="translate(-577.572 -452.73)"/>
      <path id="XMLID_46_" class="cls-1" d="M687.567,462.794a16.288,16.288,0,0,0,1.782-1.694.359.359,0,0,1-.38.029,22.2,22.2,0,0,1-1.87,1.84c.117,0,.234-.029.351-.029A.637.637,0,0,0,687.567,462.794Z" transform="translate(-552.514 -457.331)"/>
      <path id="XMLID_47_" class="cls-1" d="M674.239,459.689a3.8,3.8,0,0,1,.964-1.2c.263-.263.5-.555.76-.847-.175-.029-.321-.058-.321-.146,0-.058.117-.146.409-.292a1.676,1.676,0,0,1,.409-.117,3.33,3.33,0,0,1,.321-.321c.175-.146.321-.292.5-.438-.351,0-.672-.029-.906-.029-.876,0-1.753.088-2.658.146l-.438.438c-.2.2-.438.409-.672.613a2.929,2.929,0,0,1,.73-.292c.2-.029,1.052-.117,1.227.117.029.058.058.088.058.117,0,.292-.847.38-1.022.409a5.251,5.251,0,0,1-1.461.321H671.9a1.768,1.768,0,0,0-.234.234.222.222,0,0,1,0,.292l-.058.058h0l-.058.058a4.5,4.5,0,0,1-.351.38,8.633,8.633,0,0,1-.7.76c1.169-.088,2.337-.175,3.535-.263Z" transform="translate(-540.763 -453.934)"/>
      <path id="XMLID_84_" class="cls-1" d="M629.993,517.7h0a12.348,12.348,0,0,1,.964-1.2c-.555.029-1.11.029-1.694.058-1.665.088-3.389.76-5.054.73a2.433,2.433,0,0,1-.38-.058c-.467.847-.847,1.753-1.4,2.571a6.218,6.218,0,0,0-.964,1.782c-.058.175-.175.409-.263.643,1.4-.292,2.775-.643,4.207-.847q1.139-.175,2.279-.263a19.51,19.51,0,0,1,1.782-2.6c.029-.058.058-.088.088-.146h-.613c-.613,0-1.11-.029-1.11-.175C627.831,517.961,628.8,517.844,629.993,517.7Zm-6.135,1.2h0c-.292,0-.38-.058-.38-.175a.828.828,0,0,1,.584-.409,13.888,13.888,0,0,1,1.987-.292.633.633,0,0,1,.351.058c.234.088.321.175.321.263,0,.146-.351.234-.7.292C625.29,518.72,624.414,518.9,623.858,518.9Zm2.191.993c-.088,0-.584-.029-.584-.175,0-.234.292-.321.613-.321.38,0,.789.117.789.234C626.9,519.713,626.663,519.859,626.049,519.889Z" transform="translate(-505.865 -496.547)"/>
      <path id="XMLID_13_" class="cls-1" d="M658.511,517.147c.818,0,1.607.029,2.425.088.2-.292.409-.584.613-.847-1.315-.058-2.658-.088-3.973-.088-.818,0-1.607,0-2.425.029-.029.029-.029.058-.088.088a4.562,4.562,0,0,0-.964,1.023c.876-.117,1.694-.2,1.87-.2Q657.2,517.147,658.511,517.147Z" transform="translate(-529.154 -496.406)"/>
      <path id="XMLID_14_" class="cls-1" d="M654.154,522.656a14.469,14.469,0,0,0,.993-1.256h-.292c-1.022,0-2.016.029-3.038.088-.351.029-2.133.234-3.652.321-.175.263-.351.526-.5.789-.146.2-.292.409-.438.584a.351.351,0,0,1-.058.234,8.621,8.621,0,0,0-.672,1.11c.73-.058,1.461-.088,2.22-.117,1.461-.088,2.951-.175,4.411-.2C653.511,523.708,653.774,523.124,654.154,522.656Z" transform="translate(-523.774 -500.016)"/>
      <path id="XMLID_10_" class="cls-1" d="M680.209,517.326c.146-.175.234-.351.38-.526h-.146c-.2.292-.438.584-.643.876h.146Z" transform="translate(-547.346 -496.76)"/>
      <path id="XMLID_11_" class="cls-1" d="M672.718,523.633a5.2,5.2,0,0,0,1.052-1.665c.088-.175.175-.321.263-.467h-.146c-.2.263-.38.555-.584.818-.467.613-.935,1.315-1.4,1.928h.351A2.283,2.283,0,0,1,672.718,523.633Z" transform="translate(-541.754 -500.087)"/>
      <path id="XMLID_15_" class="cls-1" d="M679.938,519c.467-.584.876-1.2,1.315-1.782h-.088c-.555-.058-1.11-.088-1.636-.117a3.046,3.046,0,0,1-.584.964c.117.029.2.029.321.058.351.058.614.146.614.263,0,.146-.146.146-.409.146a6.311,6.311,0,0,1-.818-.058.887.887,0,0,0-.146.2c-.526.818-1.052,1.636-1.607,2.454h.029c.5,0,.964,0,1.461.029A8.313,8.313,0,0,1,679.938,519Z" transform="translate(-545.293 -496.972)"/>
      <path id="XMLID_16_" class="cls-1" d="M696.937,518.915l.351-.351c.058-.088.088-.175.146-.263q-2.41-.438-4.82-.7c-.2.263-.409.555-.613.818h.146a3.305,3.305,0,0,1,.672.058c.234,0,1.227.088,2.4.2C695.769,518.768,696.353,518.856,696.937,518.915Z" transform="translate(-555.982 -497.326)"/>
      <path id="XMLID_9_" class="cls-1" d="M690.69,522.643c-.789-.117-1.431-.234-1.607-.263-.292-.029-1.11-.029-1.87-.117a3.353,3.353,0,0,1-1.227-.263l-.438.613A13.758,13.758,0,0,0,684,524.6l1.373.088c1.227.117,2.454.234,3.71.38A8.155,8.155,0,0,1,690.69,522.643Z" transform="translate(-550.319 -500.44)"/>
      <path id="XMLID_8_" class="cls-1" d="M716.136,524.953c-1.519-2.542-5.112-3.418-7.8-4.031-.5-.117-1.022-.234-1.519-.321l-.438.438c-.029.058-.058.088-.088.146.351.058.7.117,1.022.175.993.2,1.724.409,1.724.672,0,.058-.146.088-.38.088-.5,0-1.432-.117-2.4-.234-.117-.029-.2-.029-.321-.058-.146.263-.292.526-.467.789a7.955,7.955,0,0,1-1.373,1.578,42.149,42.149,0,0,1,5.9,1.11,15.368,15.368,0,0,1,2.512.964c.555.234,1.373.467,1.665,1.081a.8.8,0,0,1,.117.409c0,.438-.38.7-.555,1.139a1.146,1.146,0,0,0-.117.526,1.448,1.448,0,0,0,.73,1.169,1.487,1.487,0,0,0,.906.263,2.4,2.4,0,0,0,2.22-2.279A8.622,8.622,0,0,0,716.136,524.953Z" transform="translate(-564.547 -499.449)"/>
    </g>
  </g>
</svg>
